<svg xmlns="http://www.w3.org/2000/svg" viewBox="0 0 512 512">
  <defs>
    <radialGradient id="bg" cx="50%" cy="40%">
      <stop offset="0%" stop-color="#FFD0E0"/>
      <stop offset="100%" stop-color="#FF70A0"/>
    </radialGradient>
  </defs>
  <!-- 背景 -->
  <rect width="512" height="512" rx="110" fill="url(#bg)"/>
  <!-- 波点 -->
  <circle cx="80" cy="80" r="12" fill="white" opacity="0.3"/>
  <circle cx="160" cy="60" r="10" fill="white" opacity="0.3"/>
  <circle cx="260" cy="50" r="14" fill="white" opacity="0.3"/>
  <circle cx="380" cy="70" r="11" fill="white" opacity="0.3"/>
  <circle cx="440" cy="140" r="13" fill="white" opacity="0.3"/>
  <circle cx="460" cy="300" r="10" fill="white" opacity="0.3"/>
  <circle cx="440" cy="440" r="12" fill="white" opacity="0.3"/>
  <circle cx="340" cy="470" r="11" fill="white" opacity="0.3"/>
  <circle cx="200" cy="480" r="14" fill="white" opacity="0.3"/>
  <circle cx="80" cy="450" r="10" fill="white" opacity="0.3"/>
  <circle cx="40" cy="320" r="13" fill="white" opacity="0.3"/>
  <circle cx="50" cy="180" r="11" fill="white" opacity="0.3"/>
  <!-- Hello Kitty 头部 -->
  <ellipse cx="256" cy="240" rx="140" ry="130" fill="white" stroke="#FF8FAB" stroke-width="4"/>
  <!-- 左耳 -->
  <ellipse cx="148" cy="140" rx="45" ry="50" fill="white" stroke="#FF8FAB" stroke-width="4"/>
  <ellipse cx="148" cy="140" rx="28" ry="32" fill="#FFB8D0"/>
  <!-- 右耳 -->
  <ellipse cx="364" cy="140" rx="45" ry="50" fill="white" stroke="#FF8FAB" stroke-width="4"/>
  <ellipse cx="364" cy="140" rx="28" ry="32" fill="#FFB8D0"/>
  <!-- 蝴蝶结 -->
  <ellipse cx="256" cy="108" rx="30" ry="20" fill="#FF70A0"/>
  <ellipse cx="226" cy="108" rx="22" ry="18" fill="#FF9DBF"/>
  <ellipse cx="286" cy="108" rx="22" ry="18" fill="#FF9DBF"/>
  <circle cx="256" cy="108" r="8" fill="#FFE135"/>
  <!-- 眼睛 -->
  <ellipse cx="206" cy="210" rx="12" ry="16" fill="#1a1a1a"/>
  <ellipse cx="306" cy="210" rx="12" ry="16" fill="#1a1a1a"/>
  <circle cx="210" cy="206" r="4" fill="white"/>
  <circle cx="310" cy="206" r="4" fill="white"/>
  <!-- 鼻子 -->
  <ellipse cx="256" cy="245" rx="8" ry="6" fill="#FFD700"/>
  <!-- 胡须 -->
  <line x1="190" y1="235" x2="220" y2="245" stroke="#FF8FAB" stroke-width="3" stroke-linecap="round"/>
  <line x1="188" y1="250" x2="220" y2="250" stroke="#FF8FAB" stroke-width="3" stroke-linecap="round"/>
  <line x1="190" y1="265" x2="220" y2="255" stroke="#FF8FAB" stroke-width="3" stroke-linecap="round"/>
  <line x1="322" y1="235" x2="292" y2="245" stroke="#FF8FAB" stroke-width="3" stroke-linecap="round"/>
  <line x1="324" y1="250" x2="292" y2="250" stroke="#FF8FAB" stroke-width="3" stroke-linecap="round"/>
  <line x1="322" y1="265" x2="292" y2="255" stroke="#FF8FAB" stroke-width="3" stroke-linecap="round"/>
</svg>
